<svg width="275" height="277" viewBox="0 0 275 277" fill="none" xmlns="http://www.w3.org/2000/svg">
<rect y="1.81201" width="275" height="275" rx="38" fill="#FED598"/>
<g opacity="0.5">
<path d="M124 276.812H97L89.4379 238.786C82.8372 205.593 72.2183 173.329 57.8157 142.704C40.8681 106.668 33.0889 67.0028 35.1697 27.235L36.5 1.81201H57.5L57.8999 8.32452C59.9436 41.6079 68.9891 74.0852 84.4449 103.633L88.1464 110.71C114.882 161.822 127.272 219.222 124 276.812Z" fill="#FCCA8B"/>
<path d="M194.5 276.812H167.5L158.155 171.399C156.082 148.016 148.43 125.471 135.842 105.656C130.652 97.4865 126.894 88.4916 124.729 79.0583L107 1.81201H128L150 69.312C165.269 105.492 175.767 143.503 181.232 182.391L194.5 276.812Z" fill="#FCCA8B"/>
<path d="M233 276.812H221.5L204 185.312L189.635 131.991C179.629 94.8506 176.488 56.1951 180.367 17.9261L182 1.81201H216L212.853 9.65033C197.17 48.7154 196.434 92.1899 210.785 131.764C217.901 151.386 222.546 171.818 224.614 192.589L233 276.812Z" fill="#FCCA8B"/>
<path d="M49.5 276.812H38L33.4921 267.084C23.9453 246.483 19 224.035 19 201.33C19 181.233 12.3159 161.693 0 145.812V108.812C16.3306 131.022 26.0204 157.411 27.9424 184.911L28.4566 192.267C30.4704 221.081 37.436 249.333 49.0472 275.781L49.5 276.812Z" fill="#FCCA8B"/>
<path d="M225 4.81201H236.5L241.008 14.5396C250.555 35.1405 255.5 57.5888 255.5 80.2944C255.5 100.391 262.184 119.931 274.5 135.812V172.812C258.169 150.602 248.48 124.213 246.558 96.7128L246.043 89.3566C244.03 60.5425 237.064 32.2912 225.453 5.84338L225 4.81201Z" fill="#FCCA8B"/>
</g>
<g filter="url(#filter0_ii_4_497)">
<rect y="1.81201" width="275" height="275" rx="38" fill="#FED598" fill-opacity="0.01"/>
</g>
<g opacity="0.3">
<g filter="url(#filter1_f_4_497)">
<path d="M15 167.312V46.812H20.5L15 167.312Z" fill="white"/>
</g>
<g filter="url(#filter2_f_4_497)">
<path d="M218 12.812L47 18.312V12.812L218 12.812Z" fill="white"/>
</g>
<g filter="url(#filter3_f_4_497)">
<path d="M18.6355 48.4697L18.6355 46.4697C18.6355 29.3489 32.5147 15.4697 49.6355 15.4697V15.4697" stroke="white" stroke-width="6"/>
</g>
</g>
<defs>
<filter id="filter0_ii_4_497" x="-5" y="-8.18799" width="290" height="295" filterUnits="userSpaceOnUse" color-interpolation-filters="sRGB">
<feFlood flood-opacity="0" result="BackgroundImageFix"/>
<feBlend mode="normal" in="SourceGraphic" in2="BackgroundImageFix" result="shape"/>
<feColorMatrix in="SourceAlpha" type="matrix" values="0 0 0 0 0 0 0 0 0 0 0 0 0 0 0 0 0 0 127 0" result="hardAlpha"/>
<feOffset dx="-5" dy="-10"/>
<feGaussianBlur stdDeviation="9.5"/>
<feComposite in2="hardAlpha" operator="arithmetic" k2="-1" k3="1"/>
<feColorMatrix type="matrix" values="0 0 0 0 0.811765 0 0 0 0 0.521569 0 0 0 0 0.305882 0 0 0 1 0"/>
<feBlend mode="normal" in2="shape" result="effect1_innerShadow_4_497"/>
<feColorMatrix in="SourceAlpha" type="matrix" values="0 0 0 0 0 0 0 0 0 0 0 0 0 0 0 0 0 0 127 0" result="hardAlpha"/>
<feOffset dx="13" dy="17"/>
<feGaussianBlur stdDeviation="5"/>
<feComposite in2="hardAlpha" operator="arithmetic" k2="-1" k3="1"/>
<feColorMatrix type="matrix" values="0 0 0 0 1 0 0 0 0 0.817708 0 0 0 0 0.5625 0 0 0 1 0"/>
<feBlend mode="normal" in2="effect1_innerShadow_4_497" result="effect2_innerShadow_4_497"/>
</filter>
<filter id="filter1_f_4_497" x="10" y="41.812" width="15.5" height="130.5" filterUnits="userSpaceOnUse" color-interpolation-filters="sRGB">
<feFlood flood-opacity="0" result="BackgroundImageFix"/>
<feBlend mode="normal" in="SourceGraphic" in2="BackgroundImageFix" result="shape"/>
<feGaussianBlur stdDeviation="2.5" result="effect1_foregroundBlur_4_497"/>
</filter>
<filter id="filter2_f_4_497" x="42" y="7.81201" width="181" height="15.5" filterUnits="userSpaceOnUse" color-interpolation-filters="sRGB">
<feFlood flood-opacity="0" result="BackgroundImageFix"/>
<feBlend mode="normal" in="SourceGraphic" in2="BackgroundImageFix" result="shape"/>
<feGaussianBlur stdDeviation="2.5" result="effect1_foregroundBlur_4_497"/>
</filter>
<filter id="filter3_f_4_497" x="10.6355" y="7.46973" width="44" height="46" filterUnits="userSpaceOnUse" color-interpolation-filters="sRGB">
<feFlood flood-opacity="0" result="BackgroundImageFix"/>
<feBlend mode="normal" in="SourceGraphic" in2="BackgroundImageFix" result="shape"/>
<feGaussianBlur stdDeviation="2.5" result="effect1_foregroundBlur_4_497"/>
</filter>
</defs>
</svg>
