<svg width="624" height="624" viewBox="0 0 624 624" fill="none" xmlns="http://www.w3.org/2000/svg">
<rect width="36" height="36" rx="4" fill="#D3D3D3"/>
<rect x="42" width="36" height="36" rx="4" fill="#EAEAEA"/>
<rect x="84" width="36" height="36" rx="4" fill="#EAEAEA"/>
<rect x="126" width="36" height="36" rx="4" fill="#D3D3D3"/>
<rect x="168" width="36" height="36" rx="4" fill="#EAEAEA"/>
<rect x="210" width="36" height="36" rx="4" fill="#EAEAEA"/>
<rect x="252" width="36" height="36" rx="4" fill="#EAEAEA"/>
<rect x="294" width="36" height="36" rx="4" fill="#EAEAEA"/>
<rect x="336" width="36" height="36" rx="4" fill="#EAEAEA"/>
<rect x="378" width="36" height="36" rx="4" fill="#EAEAEA"/>
<rect x="420" width="36" height="36" rx="4" fill="#EAEAEA"/>
<rect x="462" width="36" height="36" rx="4" fill="#D3D3D3"/>
<rect x="504" width="36" height="36" rx="4" fill="#EAEAEA"/>
<rect x="546" width="36" height="36" rx="4" fill="#EAEAEA"/>
<rect x="588" width="36" height="36" rx="4" fill="#D3D3D3"/>
<rect y="42" width="36" height="36" rx="4" fill="#EAEAEA"/>
<rect x="42" y="42" width="36" height="36" rx="4" fill="#D3D3D3"/>
<rect x="84" y="42" width="36" height="36" rx="4" fill="#EAEAEA"/>
<rect x="126" y="42" width="36" height="36" rx="4" fill="#EAEAEA"/>
<rect x="168" y="42" width="36" height="36" rx="4" fill="#EAEAEA"/>
<rect x="210" y="42" width="36" height="36" rx="4" fill="#D3D3D3"/>
<rect x="252" y="42" width="36" height="36" rx="4" fill="#EAEAEA"/>
<rect x="294" y="42" width="36" height="36" rx="4" fill="#EAEAEA"/>
<rect x="336" y="42" width="36" height="36" rx="4" fill="#EAEAEA"/>
<rect x="378" y="42" width="36" height="36" rx="4" fill="#D3D3D3"/>
<rect x="420" y="42" width="36" height="36" rx="4" fill="#EAEAEA"/>
<rect x="462" y="42" width="36" height="36" rx="4" fill="#EAEAEA"/>
<rect x="504" y="42" width="36" height="36" rx="4" fill="#EAEAEA"/>
<rect x="546" y="42" width="36" height="36" rx="4" fill="#D3D3D3"/>
<rect x="588" y="42" width="36" height="36" rx="4" fill="#EAEAEA"/>
<rect y="84" width="36" height="36" rx="4" fill="#EAEAEA"/>
<rect x="42" y="84" width="36" height="36" rx="4" fill="#EAEAEA"/>
<rect x="84" y="84" width="36" height="36" rx="4" fill="#D3D3D3"/>
<rect x="126" y="84" width="36" height="36" rx="4" fill="#EAEAEA"/>
<rect x="168" y="84" width="36" height="36" rx="4" fill="#EAEAEA"/>
<rect x="210" y="84" width="36" height="36" rx="4" fill="#EAEAEA"/>
<rect x="252" y="84" width="36" height="36" rx="4" fill="#D3D3D3"/>
<rect x="294" y="84" width="36" height="36" rx="4" fill="#EAEAEA"/>
<rect x="336" y="84" width="36" height="36" rx="4" fill="#D3D3D3"/>
<rect x="378" y="84" width="36" height="36" rx="4" fill="#EAEAEA"/>
<rect x="420" y="84" width="36" height="36" rx="4" fill="#EAEAEA"/>
<rect x="462" y="84" width="36" height="36" rx="4" fill="#EAEAEA"/>
<rect x="504" y="84" width="36" height="36" rx="4" fill="#D3D3D3"/>
<rect x="546" y="84" width="36" height="36" rx="4" fill="#EAEAEA"/>
<rect x="588" y="84" width="36" height="36" rx="4" fill="#EAEAEA"/>
<rect y="126" width="36" height="36" rx="4" fill="#D3D3D3"/>
<rect x="42" y="126" width="36" height="36" rx="4" fill="#EAEAEA"/>
<rect x="84" y="126" width="36" height="36" rx="4" fill="#EAEAEA"/>
<rect x="126" y="126" width="36" height="36" rx="4" fill="#D3D3D3"/>
<rect x="168" y="126" width="36" height="36" rx="4" fill="#EAEAEA"/>
<rect x="210" y="126" width="36" height="36" rx="4" fill="#EAEAEA"/>
<rect x="252" y="126" width="36" height="36" rx="4" fill="#EAEAEA"/>
<rect x="294" y="126" width="36" height="36" rx="4" fill="#D3D3D3"/>
<rect x="336" y="126" width="36" height="36" rx="4" fill="#EAEAEA"/>
<rect x="378" y="126" width="36" height="36" rx="4" fill="#EAEAEA"/>
<rect x="420" y="126" width="36" height="36" rx="4" fill="#EAEAEA"/>
<rect x="462" y="126" width="36" height="36" rx="4" fill="#D3D3D3"/>
<rect x="504" y="126" width="36" height="36" rx="4" fill="#EAEAEA"/>
<rect x="546" y="126" width="36" height="36" rx="4" fill="#EAEAEA"/>
<rect x="588" y="126" width="36" height="36" rx="4" fill="#D3D3D3"/>
<rect y="168" width="36" height="36" rx="4" fill="#EAEAEA"/>
<rect x="42" y="168" width="36" height="36" rx="4" fill="#EAEAEA"/>
<rect x="84" y="168" width="36" height="36" rx="4" fill="#EAEAEA"/>
<rect x="126" y="168" width="36" height="36" rx="4" fill="#EAEAEA"/>
<rect x="168" y="168" width="36" height="36" rx="4" fill="#D3D3D3"/>
<rect x="210" y="168" width="36" height="36" rx="4" fill="#EAEAEA"/>
<rect x="252" y="168" width="36" height="36" rx="4" fill="#EAEAEA"/>
<rect x="294" y="168" width="36" height="36" rx="4" fill="#EAEAEA"/>
<rect x="336" y="168" width="36" height="36" rx="4" fill="#EAEAEA"/>
<rect x="378" y="168" width="36" height="36" rx="4" fill="#EAEAEA"/>
<rect x="420" y="168" width="36" height="36" rx="4" fill="#D3D3D3"/>
<rect x="462" y="168" width="36" height="36" rx="4" fill="#EAEAEA"/>
<rect x="504" y="168" width="36" height="36" rx="4" fill="#EAEAEA"/>
<rect x="546" y="168" width="36" height="36" rx="4" fill="#EAEAEA"/>
<rect x="588" y="168" width="36" height="36" rx="4" fill="#EAEAEA"/>
<rect y="210" width="36" height="36" rx="4" fill="#EAEAEA"/>
<rect x="42" y="210" width="36" height="36" rx="4" fill="#D3D3D3"/>
<rect x="84" y="210" width="36" height="36" rx="4" fill="#EAEAEA"/>
<rect x="126" y="210" width="36" height="36" rx="4" fill="#EAEAEA"/>
<rect x="168" y="210" width="36" height="36" rx="4" fill="#EAEAEA"/>
<rect x="210" y="210" width="36" height="36" rx="4" fill="#D3D3D3"/>
<rect x="252" y="210" width="36" height="36" rx="4" fill="#EAEAEA"/>
<rect x="294" y="210" width="36" height="36" rx="4" fill="#EAEAEA"/>
<rect x="336" y="210" width="36" height="36" rx="4" fill="#EAEAEA"/>
<rect x="378" y="210" width="36" height="36" rx="4" fill="#D3D3D3"/>
<rect x="420" y="210" width="36" height="36" rx="4" fill="#EAEAEA"/>
<rect x="462" y="210" width="36" height="36" rx="4" fill="#EAEAEA"/>
<rect x="504" y="210" width="36" height="36" rx="4" fill="#EAEAEA"/>
<rect x="546" y="210" width="36" height="36" rx="4" fill="#D3D3D3"/>
<rect x="588" y="210" width="36" height="36" rx="4" fill="#EAEAEA"/>
<rect y="252" width="36" height="36" rx="4" fill="#EAEAEA"/>
<rect x="42" y="252" width="36" height="36" rx="4" fill="#EAEAEA"/>
<rect x="84" y="252" width="36" height="36" rx="4" fill="#D3D3D3"/>
<rect x="126" y="252" width="36" height="36" rx="4" fill="#EAEAEA"/>
<rect x="168" y="252" width="36" height="36" rx="4" fill="#EAEAEA"/>
<rect x="210" y="252" width="36" height="36" rx="4" fill="#EAEAEA"/>
<rect x="252" y="252" width="36" height="36" rx="4" fill="#D3D3D3"/>
<rect x="294" y="252" width="36" height="36" rx="4" fill="#EAEAEA"/>
<rect x="336" y="252" width="36" height="36" rx="4" fill="#D3D3D3"/>
<rect x="378" y="252" width="36" height="36" rx="4" fill="#EAEAEA"/>
<rect x="420" y="252" width="36" height="36" rx="4" fill="#EAEAEA"/>
<rect x="462" y="252" width="36" height="36" rx="4" fill="#EAEAEA"/>
<rect x="504" y="252" width="36" height="36" rx="4" fill="#D3D3D3"/>
<rect x="546" y="252" width="36" height="36" rx="4" fill="#EAEAEA"/>
<rect x="588" y="252" width="36" height="36" rx="4" fill="#EAEAEA"/>
<rect y="294" width="36" height="36" rx="4" fill="#EAEAEA"/>
<rect x="42" y="294" width="36" height="36" rx="4" fill="#EAEAEA"/>
<rect x="84" y="294" width="36" height="36" rx="4" fill="#EAEAEA"/>
<rect x="126" y="294" width="36" height="36" rx="4" fill="#D3D3D3"/>
<rect x="168" y="294" width="36" height="36" rx="4" fill="#EAEAEA"/>
<rect x="210" y="294" width="36" height="36" rx="4" fill="#EAEAEA"/>
<rect x="252" y="294" width="36" height="36" rx="4" fill="#EAEAEA"/>
<rect x="294" y="294" width="36" height="36" rx="4" fill="#D3D3D3"/>
<rect x="336" y="294" width="36" height="36" rx="4" fill="#EAEAEA"/>
<rect x="378" y="294" width="36" height="36" rx="4" fill="#EAEAEA"/>
<rect x="420" y="294" width="36" height="36" rx="4" fill="#EAEAEA"/>
<rect x="462" y="294" width="36" height="36" rx="4" fill="#D3D3D3"/>
<rect x="504" y="294" width="36" height="36" rx="4" fill="#EAEAEA"/>
<rect x="546" y="294" width="36" height="36" rx="4" fill="#EAEAEA"/>
<rect x="588" y="294" width="36" height="36" rx="4" fill="#D3D3D3"/>
<rect y="336" width="36" height="36" rx="4" fill="#EAEAEA"/>
<rect x="42" y="336" width="36" height="36" rx="4" fill="#EAEAEA"/>
<rect x="84" y="336" width="36" height="36" rx="4" fill="#D3D3D3"/>
<rect x="126" y="336" width="36" height="36" rx="4" fill="#EAEAEA"/>
<rect x="168" y="336" width="36" height="36" rx="4" fill="#EAEAEA"/>
<rect x="210" y="336" width="36" height="36" rx="4" fill="#EAEAEA"/>
<rect x="252" y="336" width="36" height="36" rx="4" fill="#D3D3D3"/>
<rect x="294" y="336" width="36" height="36" rx="4" fill="#EAEAEA"/>
<rect x="336" y="336" width="36" height="36" rx="4" fill="#D3D3D3"/>
<rect x="378" y="336" width="36" height="36" rx="4" fill="#EAEAEA"/>
<rect x="420" y="336" width="36" height="36" rx="4" fill="#EAEAEA"/>
<rect x="462" y="336" width="36" height="36" rx="4" fill="#EAEAEA"/>
<rect x="504" y="336" width="36" height="36" rx="4" fill="#D3D3D3"/>
<rect x="546" y="336" width="36" height="36" rx="4" fill="#EAEAEA"/>
<rect x="588" y="336" width="36" height="36" rx="4" fill="#EAEAEA"/>
<rect y="378" width="36" height="36" rx="4" fill="#EAEAEA"/>
<rect x="42" y="378" width="36" height="36" rx="4" fill="#D3D3D3"/>
<rect x="84" y="378" width="36" height="36" rx="4" fill="#EAEAEA"/>
<rect x="126" y="378" width="36" height="36" rx="4" fill="#EAEAEA"/>
<rect x="168" y="378" width="36" height="36" rx="4" fill="#EAEAEA"/>
<rect x="210" y="378" width="36" height="36" rx="4" fill="#D3D3D3"/>
<rect x="252" y="378" width="36" height="36" rx="4" fill="#EAEAEA"/>
<rect x="294" y="378" width="36" height="36" rx="4" fill="#EAEAEA"/>
<rect x="336" y="378" width="36" height="36" rx="4" fill="#EAEAEA"/>
<rect x="378" y="378" width="36" height="36" rx="4" fill="#D3D3D3"/>
<rect x="420" y="378" width="36" height="36" rx="4" fill="#EAEAEA"/>
<rect x="462" y="378" width="36" height="36" rx="4" fill="#EAEAEA"/>
<rect x="504" y="378" width="36" height="36" rx="4" fill="#EAEAEA"/>
<rect x="546" y="378" width="36" height="36" rx="4" fill="#D3D3D3"/>
<rect x="588" y="378" width="36" height="36" rx="4" fill="#EAEAEA"/>
<rect y="420" width="36" height="36" rx="4" fill="#EAEAEA"/>
<rect x="42" y="420" width="36" height="36" rx="4" fill="#EAEAEA"/>
<rect x="84" y="420" width="36" height="36" rx="4" fill="#EAEAEA"/>
<rect x="126" y="420" width="36" height="36" rx="4" fill="#EAEAEA"/>
<rect x="168" y="420" width="36" height="36" rx="4" fill="#D3D3D3"/>
<rect x="210" y="420" width="36" height="36" rx="4" fill="#EAEAEA"/>
<rect x="252" y="420" width="36" height="36" rx="4" fill="#EAEAEA"/>
<rect x="294" y="420" width="36" height="36" rx="4" fill="#EAEAEA"/>
<rect x="336" y="420" width="36" height="36" rx="4" fill="#EAEAEA"/>
<rect x="378" y="420" width="36" height="36" rx="4" fill="#EAEAEA"/>
<rect x="420" y="420" width="36" height="36" rx="4" fill="#D3D3D3"/>
<rect x="462" y="420" width="36" height="36" rx="4" fill="#EAEAEA"/>
<rect x="504" y="420" width="36" height="36" rx="4" fill="#EAEAEA"/>
<rect x="546" y="420" width="36" height="36" rx="4" fill="#EAEAEA"/>
<rect x="588" y="420" width="36" height="36" rx="4" fill="#EAEAEA"/>
<rect y="462" width="36" height="36" rx="4" fill="#D3D3D3"/>
<rect x="42" y="462" width="36" height="36" rx="4" fill="#EAEAEA"/>
<rect x="84" y="462" width="36" height="36" rx="4" fill="#EAEAEA"/>
<rect x="126" y="462" width="36" height="36" rx="4" fill="#D3D3D3"/>
<rect x="168" y="462" width="36" height="36" rx="4" fill="#EAEAEA"/>
<rect x="210" y="462" width="36" height="36" rx="4" fill="#EAEAEA"/>
<rect x="252" y="462" width="36" height="36" rx="4" fill="#EAEAEA"/>
<rect x="294" y="462" width="36" height="36" rx="4" fill="#D3D3D3"/>
<rect x="336" y="462" width="36" height="36" rx="4" fill="#EAEAEA"/>
<rect x="378" y="462" width="36" height="36" rx="4" fill="#EAEAEA"/>
<rect x="420" y="462" width="36" height="36" rx="4" fill="#EAEAEA"/>
<rect x="462" y="462" width="36" height="36" rx="4" fill="#D3D3D3"/>
<rect x="504" y="462" width="36" height="36" rx="4" fill="#EAEAEA"/>
<rect x="546" y="462" width="36" height="36" rx="4" fill="#EAEAEA"/>
<rect x="588" y="462" width="36" height="36" rx="4" fill="#D3D3D3"/>
<rect y="504" width="36" height="36" rx="4" fill="#EAEAEA"/>
<rect x="42" y="504" width="36" height="36" rx="4" fill="#EAEAEA"/>
<rect x="84" y="504" width="36" height="36" rx="4" fill="#D3D3D3"/>
<rect x="126" y="504" width="36" height="36" rx="4" fill="#EAEAEA"/>
<rect x="168" y="504" width="36" height="36" rx="4" fill="#EAEAEA"/>
<rect x="210" y="504" width="36" height="36" rx="4" fill="#EAEAEA"/>
<rect x="252" y="504" width="36" height="36" rx="4" fill="#D3D3D3"/>
<rect x="294" y="504" width="36" height="36" rx="4" fill="#EAEAEA"/>
<rect x="336" y="504" width="36" height="36" rx="4" fill="#D3D3D3"/>
<rect x="378" y="504" width="36" height="36" rx="4" fill="#EAEAEA"/>
<rect x="420" y="504" width="36" height="36" rx="4" fill="#EAEAEA"/>
<rect x="462" y="504" width="36" height="36" rx="4" fill="#EAEAEA"/>
<rect x="504" y="504" width="36" height="36" rx="4" fill="#D3D3D3"/>
<rect x="546" y="504" width="36" height="36" rx="4" fill="#EAEAEA"/>
<rect x="588" y="504" width="36" height="36" rx="4" fill="#EAEAEA"/>
<rect y="546" width="36" height="36" rx="4" fill="#EAEAEA"/>
<rect x="42" y="546" width="36" height="36" rx="4" fill="#D3D3D3"/>
<rect x="84" y="546" width="36" height="36" rx="4" fill="#EAEAEA"/>
<rect x="126" y="546" width="36" height="36" rx="4" fill="#EAEAEA"/>
<rect x="168" y="546" width="36" height="36" rx="4" fill="#EAEAEA"/>
<rect x="210" y="546" width="36" height="36" rx="4" fill="#D3D3D3"/>
<rect x="252" y="546" width="36" height="36" rx="4" fill="#EAEAEA"/>
<rect x="294" y="546" width="36" height="36" rx="4" fill="#EAEAEA"/>
<rect x="336" y="546" width="36" height="36" rx="4" fill="#EAEAEA"/>
<rect x="378" y="546" width="36" height="36" rx="4" fill="#D3D3D3"/>
<rect x="420" y="546" width="36" height="36" rx="4" fill="#EAEAEA"/>
<rect x="462" y="546" width="36" height="36" rx="4" fill="#EAEAEA"/>
<rect x="504" y="546" width="36" height="36" rx="4" fill="#EAEAEA"/>
<rect x="546" y="546" width="36" height="36" rx="4" fill="#D3D3D3"/>
<rect x="588" y="546" width="36" height="36" rx="4" fill="#EAEAEA"/>
<rect y="588" width="36" height="36" rx="4" fill="#D3D3D3"/>
<rect x="42" y="588" width="36" height="36" rx="4" fill="#EAEAEA"/>
<rect x="84" y="588" width="36" height="36" rx="4" fill="#EAEAEA"/>
<rect x="126" y="588" width="36" height="36" rx="4" fill="#D3D3D3"/>
<rect x="168" y="588" width="36" height="36" rx="4" fill="#EAEAEA"/>
<rect x="210" y="588" width="36" height="36" rx="4" fill="#EAEAEA"/>
<rect x="252" y="588" width="36" height="36" rx="4" fill="#EAEAEA"/>
<rect x="294" y="588" width="36" height="36" rx="4" fill="#EAEAEA"/>
<rect x="336" y="588" width="36" height="36" rx="4" fill="#EAEAEA"/>
<rect x="378" y="588" width="36" height="36" rx="4" fill="#EAEAEA"/>
<rect x="420" y="588" width="36" height="36" rx="4" fill="#EAEAEA"/>
<rect x="462" y="588" width="36" height="36" rx="4" fill="#D3D3D3"/>
<rect x="504" y="588" width="36" height="36" rx="4" fill="#EAEAEA"/>
<rect x="546" y="588" width="36" height="36" rx="4" fill="#EAEAEA"/>
<rect x="588" y="588" width="36" height="36" rx="4" fill="#D3D3D3"/>
</svg>
